<svg width="98" height="24" viewBox="0 0 98 24" fill="none" xmlns="http://www.w3.org/2000/svg">
<path d="M9.06534 23.9999C4.06723 23.9999 0 19.8673 0 14.7853C0 9.70312 4.06723 5.57056 9.06534 5.57056C14.067 5.57056 18.1342 9.70312 18.1342 14.7853C18.1342 19.8673 14.067 23.9999 9.06534 23.9999ZM9.06534 9.43032C6.16172 9.43032 3.79871 11.8313 3.79871 14.7853C3.79871 17.7392 6.16172 20.1401 9.06534 20.1401C11.969 20.1401 14.3356 17.7392 14.3356 14.7853C14.3356 11.8313 11.969 9.43032 9.06534 9.43032Z" fill="#F97D7D"/>
<path d="M41.6226 23.2938V13.6717C41.6226 10.9434 40.6809 9.21172 38.4647 9.21172C36.4705 9.21172 34.9095 10.4667 34.9095 14.5557V23.2938H30.9568V13.6317C30.9568 10.9033 30.0832 9.20808 27.8706 9.20808C25.8763 9.20808 24.2437 10.4631 24.2437 14.5521V23.2902H20.2839V6.11227H24.2402V8.50962C24.9634 6.92352 26.7428 5.66846 28.959 5.66846C32.0417 5.66846 33.5668 7.03265 34.2937 8.72789C35.0921 6.99627 37.0899 5.66846 39.4815 5.66846C44.562 5.66846 45.5788 9.20809 45.5788 12.4167V23.2938H41.6226Z" fill="#F97D7D"/>
<path d="M51.8133 15.92C51.8491 18.39 53.0485 20.3799 56.2385 20.3799C58.4905 20.3799 59.3247 19.3468 59.8332 18.1317H63.8252C63.2811 21.082 60.5599 23.734 56.2385 23.734C50.5422 23.734 47.7854 19.3832 47.7854 14.7013C47.7854 9.53916 50.7965 5.66846 56.1312 5.66846C60.5206 5.66846 63.972 9.02256 63.972 13.4134C63.972 14.0027 63.972 14.814 63.7894 15.92H51.8133ZM51.8491 12.9333H60.1232C60.1232 10.5359 58.419 9.02619 56.0237 9.02619C53.7001 9.02619 51.8491 10.3904 51.8491 12.9333Z" fill="#F97D7D"/>
<path d="M66.4878 0H70.4439V23.2932H66.4878V0Z" fill="#F97D7D"/>
<path d="M73.104 0H77.0602V23.2932H73.104V0Z" fill="#F97D7D"/>
<path d="M97.0928 6.11227V23.2938H93.1368V20.9692C92.084 22.7045 89.8714 23.734 87.9093 23.734C82.7573 23.734 79.2378 19.5687 79.2378 14.7013C79.2378 9.83376 82.7573 5.66846 87.9093 5.66846C89.8714 5.66846 92.0804 6.7016 93.1368 8.43322V6.11227H97.0928ZM93.1368 14.7013C93.1368 11.7509 91.1781 9.24446 88.1314 9.24446C85.1561 9.24446 83.194 11.7509 83.194 14.7013C83.194 17.6516 85.1561 20.158 88.1314 20.158C91.1781 20.1616 93.1368 17.6516 93.1368 14.7013Z" fill="#F97D7D"/>
</svg>
